<?xml version="1.0" encoding="iso-8859-1"?>
<!-- Generator: Adobe Illustrator 30.1.0, SVG Export Plug-In . SVG Version: 9.03 Build 0)  -->
<svg version="1.1" id="&#x5716;&#x5C64;_1" xmlns="http://www.w3.org/2000/svg" xmlns:xlink="http://www.w3.org/1999/xlink" x="0px"
	 y="0px" viewBox="0 0 48 65" style="enable-background:new 0 0 48 65;" xml:space="preserve">
<g id="_x30_01" style="display:none;">
	<g style="display:inline;">
		<g>
			<path style="fill:#FFFFFF;" d="M3.625,63.265v1.591H2.807v-5.195h-0.53v-1.724c0-0.1,0.044-0.144,0.133-0.144h0.386v-2.608
				c0-0.177,0.078-0.265,0.255-0.265h2.697c0.188,0,0.276,0.089,0.276,0.265v2.608h0.033l0.707,0.342
				c-0.033,0.443-0.166,0.985-0.376,1.603l-0.354-0.11v4.454c0,0.332-0.121,0.575-0.376,0.763c-0.121,0.088-0.309,0.121-0.575,0.121
				c-0.21,0-0.475-0.021-0.774-0.077l-0.022-0.896c0.309,0.111,0.486,0.166,0.619,0.166c0.121,0,0.321-0.177,0.321-0.398v-0.497
				H3.625z M3.039,59.43h2.631l0.188-0.751c0-0.078-0.033-0.122-0.11-0.122H3.116c-0.056,0-0.078,0.022-0.078,0.077V59.43z
				 M3.558,57.793H4v-1.436c-0.011-0.1,0.033-0.166,0.155-0.166h1.094v-0.442c0-0.066-0.044-0.1-0.121-0.1H3.669
				c-0.077,0-0.11,0.033-0.11,0.1V57.793z M3.625,60.988h1.603V60.27c0-0.045-0.022-0.066-0.078-0.066H3.691
				c-0.044,0-0.066,0.021-0.066,0.066V60.988z M3.625,62.502h1.603v-0.751H3.625V62.502z M4.675,57.793h0.575v-0.917H4.752
				c-0.056,0-0.089,0.033-0.078,0.089V57.793z M8.3,64.05l-0.133-0.498l-0.143-0.42H7.305c-0.077,0-0.11-0.045-0.11-0.111V61.01
				c0-0.078,0.033-0.111,0.11-0.111h4.643c0.077,0,0.11,0.033,0.11,0.111v2.011c0,0.066-0.033,0.111-0.11,0.111h-0.674l-0.299,0.917
				h1.514v0.774h-5.88V64.05H8.3z M10.633,55.395h1.37c0.066,0,0.1,0.033,0.1,0.1v3.493c0,0.077-0.033,0.11-0.1,0.11H6.952
				c-0.066,0-0.1-0.033-0.1-0.11v-3.493c0-0.066,0.033-0.1,0.1-0.1h1.404v-0.73h0.773v0.73h0.741v-0.73h0.763V55.395z M6.874,59.606
				h5.449v0.763H6.874V59.606z M8.356,56.865v-0.741H7.648c-0.033,0-0.044,0.011-0.033,0.033v0.707H8.356z M8.356,58.38v-0.796
				H7.615v0.751l0.033,0.045H8.356z M11.251,61.673h-3.26l-0.033,0.033v0.62l0.033,0.044h3.26c0.033,0,0.044-0.011,0.044-0.044
				v-0.62L11.251,61.673z M9.118,64.05h1.017l0.254-0.718l0.056-0.199H8.853L9.118,64.05z M9.869,56.865v-0.741H9.129v0.741H9.869z
				 M9.869,58.38v-0.796H9.129v0.796H9.869z M10.633,56.125v0.741h0.707v-0.707l-0.044-0.033H10.633z M10.633,57.583v0.796h0.663
				l0.044-0.045v-0.751H10.633z"/>
			<path style="fill:#FFFFFF;" d="M21.206,62.16c-0.818-0.818-1.813-1.713-2.995-2.697c-0.586,1.149-1.426,2.067-2.52,2.73
				l-0.707-0.73c1.735-0.873,2.686-2.388,2.841-4.521h-2.984c-0.055,0-0.066,0.022-0.066,0.077v7.704h-0.984v-8.422
				c0-0.221,0.11-0.342,0.342-0.342h3.714v-1.172h0.984v1.172h3.913c0.243,0,0.354,0.121,0.354,0.342v7.383
				c0,1.216-1.183,1.238-1.625,1.238c-0.409,0-0.918-0.056-1.504-0.166l-0.077-1.105c0.685,0.188,1.194,0.288,1.514,0.288
				c0.265,0,0.718-0.188,0.718-0.597V57.02c0-0.055-0.033-0.077-0.088-0.077h-3.216c-0.044,0.608-0.155,1.16-0.309,1.658
				c1.161,0.852,2.266,1.78,3.349,2.763L21.206,62.16z"/>
			<path style="fill:#FFFFFF;" d="M25.557,59.22l-0.354,0.53l-0.896-0.376c0.973-1.392,1.592-2.951,1.857-4.631l0.928,0.143
				c-0.177,0.873-0.365,1.647-0.597,2.311v7.715h-0.939V59.22z M33.924,64.127c-1.039-0.707-1.968-1.548-2.763-2.52v3.306h-0.94
				v-3.261c-0.906,1.072-1.834,1.89-2.741,2.398l-0.685-0.741c1.271-0.718,2.31-1.614,3.139-2.674h-2.885v-0.94h3.172v-1.006h-2.509
				c-0.077,0-0.121-0.044-0.121-0.143v-3.427c0-0.089,0.044-0.133,0.121-0.133h6.112c0.1,0,0.144,0.044,0.144,0.133v3.427
				c0,0.1-0.044,0.143-0.144,0.143H31.16v1.006h3.283v0.94H31.47c0.763,1.061,1.835,2,3.205,2.83L33.924,64.127z M32.973,55.926
				h-4.399c-0.033,0-0.044,0.011-0.044,0.044v1.724c0,0.033,0.011,0.056,0.044,0.056h4.399c0.033,0,0.055-0.022,0.055-0.056V55.97
				L32.973,55.926z"/>
			<path style="fill:#FFFFFF;" d="M41.645,63.077c0.652,0.387,1.293,0.674,1.946,0.829l-0.254-0.487
				c0.63-0.32,1.116-0.619,1.447-0.884l0.464,0.718c-0.309,0.255-0.685,0.498-1.149,0.752c0.453,0.066,0.962,0.11,1.514,0.121
				L45.326,65c-2.266-0.166-3.703-0.973-5.041-1.923h-2.189v0.896c0.177,0,1.426-0.122,2.034-0.244l0.133,0.885
				c-1.061,0.232-2.476,0.342-4.278,0.342l-0.11-0.896l1.326-0.021v-3.626c-0.453,0.265-0.873,0.454-1.26,0.585l-0.486-0.784
				c0.939-0.32,1.812-0.807,2.597-1.437h-2.498v-0.851h4.565v-0.42h-3.736v-0.73h3.736v-0.464h-4.3V55.55h2.62l-0.265-0.387
				l0.763-0.486c0.188,0.221,0.376,0.519,0.564,0.873h2.365c0.243-0.342,0.442-0.641,0.564-0.885l0.763,0.487L42.96,55.55h2.366
				v0.762h-4.278v0.464h3.846v0.73h-3.846v0.42h4.499v0.851h-2.553c0.741,0.642,1.658,1.095,2.73,1.327l-0.442,0.807
				c-0.508-0.133-0.984-0.309-1.448-0.542v2.442c0,0.177-0.078,0.265-0.254,0.265H41.645z M39.313,58.777
				c-0.531,0.509-1.028,0.929-1.492,1.238h5.394c-0.442-0.299-0.928-0.707-1.437-1.238H39.313z M38.285,60.745
				c-0.188,0-0.188,0.066-0.188,0.442h4.842c0-0.398,0-0.442-0.199-0.442H38.285z M42.817,62.347c0.121,0,0.121-0.044,0.121-0.442
				h-4.842v0.442H42.817z M39.059,59.197h2.984v0.552h-2.984V59.197z"/>
		</g>
		<g>
			<g>
				<path style="fill:#FFFFFF;" d="M23.997,45.541c-11.855,0-21.5-9.645-21.5-21.5c0-6.404,2.826-12.429,7.752-16.531
					c0.24-0.2,0.596-0.167,0.796,0.073c0.2,0.24,0.167,0.596-0.073,0.796c-4.668,3.886-7.345,9.595-7.345,15.662
					c0,11.232,9.138,20.37,20.37,20.37s20.37-9.138,20.37-20.37c0-5.879-2.541-11.472-6.972-15.344
					C37.16,8.492,37.136,8.135,37.342,7.9c0.205-0.235,0.563-0.259,0.798-0.054c4.676,4.087,7.358,9.99,7.358,16.195
					C45.498,35.896,35.852,45.541,23.997,45.541z"/>
			</g>
			<g>
				<path style="fill:#FFFFFF;" d="M34.899,0.02c-0.658-0.092-1.165,0.182-1.56,0.709c-1.76,2.354-3.513,4.713-5.293,7.051
					c-2.163,2.841-6.327,2.845-8.506,0.019c-0.791-1.026-1.559-2.071-2.337-3.108c-1.013-1.35-2.023-2.703-3.04-4.05
					c-0.431-0.571-1.137-0.78-1.796-0.552c-0.639,0.22-1.063,0.823-1.06,1.506c-0.002,0.335,0.111,0.633,0.29,0.912
					c1.641,2.564,3.287,5.125,4.918,7.694c0.605,0.952,1.28,1.865,1.713,2.92c0.088,0.214,0.307,0.293,0.506,0.215
					c0.209-0.081,0.323-0.302,0.223-0.518c-0.201-0.437-0.396-0.882-0.651-1.289c-1.028-1.641-2.078-3.268-3.121-4.899
					c-0.962-1.505-1.923-3.009-2.888-4.512c-0.144-0.225-0.24-0.455-0.166-0.724c0.085-0.311,0.291-0.514,0.604-0.577
					c0.344-0.07,0.614,0.068,0.824,0.348c1.776,2.37,3.541,4.748,5.335,7.105c2.483,3.261,7.31,3.254,9.794-0.006
					c1.133-1.486,2.246-2.988,3.367-4.483c0.656-0.874,1.309-1.75,1.968-2.622c0.264-0.35,0.644-0.452,0.996-0.284
					c0.443,0.212,0.58,0.73,0.299,1.171c-0.874,1.373-1.752,2.743-2.629,4.114c-1.144,1.79-2.289,3.58-3.43,5.372
					c-0.168,0.263-0.131,0.503,0.078,0.632c0.205,0.127,0.435,0.052,0.59-0.191c1.639-2.565,3.278-5.13,4.917-7.696
					c0.389-0.61,0.788-1.214,1.166-1.83C36.631,1.44,36.06,0.184,34.899,0.02z"/>
				<path style="fill:#FFFFFF;" d="M23.784,8.272c1.949,0.001,3.526-1.573,3.527-3.52c0-1.961-1.575-3.534-3.538-3.532
					c-1.935,0.001-3.51,1.575-3.513,3.51C20.257,6.698,21.822,8.271,23.784,8.272z M23.776,2.022
					c1.528,0.002,2.736,1.215,2.734,2.745c-0.002,1.494-1.223,2.704-2.728,2.704c-1.513,0-2.723-1.215-2.721-2.733
					C21.062,3.238,22.28,2.02,23.776,2.022z"/>
				<path style="fill:#FFFFFF;" d="M23.144,24.404c-0.222-0.095-0.479,0.009-0.573,0.231c-2.333,5.479-6.083,13.935-6.848,14.773
					c-0.289,0.317-0.582,0.388-0.871,0.213c-0.338-0.205-0.59-0.726-0.427-1.176c0.411-1.131,5.367-14.395,5.417-14.529
					c0.084-0.226-0.03-0.478-0.256-0.562c-0.226-0.084-0.478,0.031-0.562,0.256c-0.05,0.134-5.007,13.401-5.42,14.536
					c-0.291,0.8,0.058,1.776,0.795,2.222c0.215,0.13,0.48,0.217,0.765,0.217c0.388,0,0.814-0.16,1.205-0.588
					c1.112-1.218,6.407-13.611,7.007-15.02C23.47,24.755,23.366,24.498,23.144,24.404z"/>
				<path style="fill:#FFFFFF;" d="M28.547,23.611c-0.084-0.226-0.336-0.341-0.562-0.256c-0.226,0.084-0.341,0.336-0.256,0.562
					c0.05,0.134,5.006,13.398,5.417,14.529c0.164,0.45-0.089,0.971-0.426,1.176c-0.289,0.175-0.582,0.103-0.872-0.213
					c-0.766-0.839-4.515-9.294-6.848-14.773c-0.095-0.222-0.351-0.325-0.573-0.231c-0.222,0.095-0.325,0.351-0.231,0.573
					c0.6,1.409,5.895,13.802,7.007,15.02c0.391,0.428,0.817,0.588,1.205,0.588c0.285,0,0.55-0.086,0.765-0.217
					c0.737-0.446,1.086-1.422,0.795-2.222C33.554,37.012,28.597,23.745,28.547,23.611z"/>
				<path style="fill:#FFFFFF;" d="M21.039,14.465c-1.958,0-3.496,2.01-3.496,4.325c0,1.821,0.949,2.955,2.534,2.955
					c1.958,0,3.496-2.01,3.496-4.325C23.573,15.599,22.624,14.465,21.039,14.465z M20.138,20.744c-0.945,0-1.409-0.794-1.409-2.036
					c0-1.636,1.001-3.242,2.25-3.242c0.945,0,1.409,0.794,1.409,2.036C22.388,19.138,21.387,20.744,20.138,20.744z"/>
				<polygon style="fill:#FFFFFF;" points="25.553,14.594 24.149,21.615 25.308,21.615 25.755,19.408 27.017,18.12 28.254,21.615 
					29.461,21.615 27.88,17.39 30.47,14.594 29.186,14.594 26.113,17.768 26.079,17.768 26.712,14.594 				"/>
			</g>
		</g>
	</g>
</g>
<g id="_x30_02">
	<g>
		<g>
			<path style="fill:#FFFFFF;" d="M3.633,59.972c0,0.884-0.066,2.067-0.332,3.57l-0.917-0.188c0.254-1.171,0.398-2.465,0.398-3.835
				v-5.671c0-0.143,0.066-0.21,0.199-0.21h2.167l0.133,0.056l0.078,0.154v9.175c0,0.519-0.498,0.619-0.553,0.619l-1.039-0.033
				l-0.121-0.94c0.376,0.077,0.619,0.133,0.729,0.133c0.121,0,0.133-0.066,0.133-0.11v-2.719H3.633z M3.633,56.445h0.873v-1.868
				l-0.033-0.066l-0.066-0.022H3.721c-0.055,0-0.088,0.033-0.088,0.089V56.445z M3.633,59.121h0.873v-1.824H3.633V59.121z
				 M12.232,59.894c-1.227-0.475-2.31-1.072-3.216-1.79c-0.752,0.608-1.78,1.204-3.062,1.757l-0.464-0.84
				c1.702-0.553,2.819-1.183,3.316-1.869l0.752,0.188l-0.243-0.718c0.453-0.178,0.951-0.41,1.459-0.697l0.354,0.774
				c-0.674,0.342-1.194,0.575-1.536,0.707l-0.066,0.1c0.906,0.674,1.978,1.205,3.183,1.548L12.232,59.894z M5.633,55.373
				c0.497-0.198,0.962-0.442,1.382-0.696l0.354,0.762l-1.437,0.73L5.633,55.373z M5.667,53.682h2.796
				c0.143,0,0.221,0.078,0.221,0.221v3.36H7.833v-2.609c0-0.077-0.033-0.121-0.11-0.121H5.667V53.682z M5.7,57.042
				c0.442-0.21,0.95-0.498,1.492-0.851l0.398,0.741c-0.641,0.409-1.161,0.696-1.548,0.873L5.7,57.042z M5.799,60.292
				c1.238-0.298,2.288-0.828,3.172-1.569l0.542,0.663c-1.161,0.928-2.277,1.503-3.316,1.735L5.799,60.292z M6.617,61.508
				c1.238-0.288,2.443-0.985,3.593-2.056l0.563,0.629c-1.249,1.194-2.752,2.001-4.454,2.398l-0.31-0.84L6.617,61.508z M6.219,62.824
				c1.636-0.221,3.57-0.464,5.062-2.609l0.796,0.442l-0.508,0.697c-1.017,1.183-2.686,1.967-5.007,2.344L6.219,62.824z
				 M9.038,55.418c0.265-0.1,0.763-0.354,1.47-0.741l0.354,0.762c-0.398,0.255-0.917,0.509-1.514,0.774L9.038,55.418z M9.115,53.727
				h2.896c0.132,0,0.21,0.077,0.21,0.21v4.023H11.37v-3.261c0-0.077-0.033-0.121-0.11-0.121H9.115V53.727z"/>
			<path style="fill:#FFFFFF;" d="M18.76,59.607h-2.896c-0.078,0-0.122-0.044-0.122-0.143v-3.858c0-0.088,0.044-0.133,0.122-0.133
				h2.852v-0.895h-3.382c-0.077,0-0.121,0.044-0.121,0.121v3.67c0,1.835-0.299,3.449-0.851,4.852l-0.917-0.309
				c0.674-1.668,0.807-2.874,0.829-4.841v-4.167c0-0.177,0.088-0.265,0.254-0.265h8.732v0.94h-3.603v0.895h3.139
				c0.1,0,0.144,0.045,0.144,0.133v3.858c0,0.1-0.044,0.143-0.144,0.143H19.7v2.874c0,0.211-0.077,1.095-1.149,1.095
				c-0.387,0-0.884-0.089-1.492-0.265l0.044-0.973l0.752,0.243c0.177,0.045,0.342,0.056,0.464,0.056c0.332,0,0.442-0.11,0.442-0.409
				V59.607z M14.837,62.536c0.906-0.652,1.613-1.448,2.111-2.365l0.818,0.464c-0.685,1.16-1.448,2.033-2.233,2.553L14.837,62.536z
				 M16.682,57.119h5.317v-0.707c0-0.033-0.011-0.044-0.044-0.044h-5.239c-0.033,0-0.044,0.011-0.033,0.044V57.119z M21.999,58.015
				h-5.317v0.641c-0.011,0.033,0,0.044,0.033,0.056h5.239l0.044-0.056V58.015z M22.883,63.431c-0.806-1.161-1.525-2.034-2.144-2.609
				l0.707-0.629c0.707,0.652,1.426,1.547,2.189,2.652L22.883,63.431z"/>
			<path style="fill:#FFFFFF;" d="M32.274,58.092c-2.41-0.033-4.399-0.177-5.67-1.392c-0.387,0.718-0.873,1.359-1.437,1.901
				l-0.729-0.575c0.95-0.873,1.592-1.912,1.934-3.128l0.818,0.255l-0.232,0.718c0.497,0.498,1.205,0.873,2.111,1.128v-2.377h-4.134
				v-0.851h9.185l0.508,0.365c-0.199,0.608-0.409,1.16-0.663,1.691l-0.807-0.265l0.299-0.685l0.033-0.199
				c-0.011-0.033-0.033-0.056-0.088-0.056h-3.437v0.94h3.128v0.807h-3.128v0.763h0.055c0.608,0.044,1.249,0.066,1.924,0.066h2.785
				l-0.232,0.895H32.274z M33.578,63.055l-8.953,0.443l-0.1-0.885l4.609-0.232v-0.828h-3.493c-0.078,0-0.122-0.044-0.122-0.133
				v-2.377c0-0.066,0.044-0.11,0.122-0.11h3.493v-0.652h0.94v0.652h3.515c0.089,0,0.133,0.044,0.133,0.11v2.377
				c0,0.089-0.044,0.133-0.133,0.133c0.431,0.508,0.829,1.05,1.183,1.581l-0.796,0.498L33.578,63.055z M29.135,60.745v-1.006h-2.686
				c-0.033,0-0.033,0.011-0.033,0.033v0.929l0.033,0.044H29.135z M30.074,59.739v1.006h2.708l0.044-0.044v-0.929l-0.044-0.033
				H30.074z M32.617,61.828l0.398-0.276h-2.94v0.784l2.84-0.133L32.617,61.828z"/>
			<path style="fill:#FFFFFF;" d="M37.265,63v0.486h-0.984v-8.522c0-0.221,0.11-0.332,0.331-0.332h2.863
				c0.232-0.508,0.387-0.928,0.486-1.26l0.884,0.321l-0.321,0.939h4.211c0.221,0,0.342,0.111,0.342,0.332v8.522h-0.984V63H37.265z
				 M44.096,55.716c0-0.1-0.044-0.144-0.144-0.144h-6.543c-0.111,0-0.155,0.056-0.144,0.144v2.631h6.831V55.716z M37.265,62.061
				h6.831v-2.774h-6.831V62.061z"/>
		</g>
		<g>
			<g>
				<path style="fill:#FFFFFF;" d="M24.116,44.304c-11.855,0-21.5-9.645-21.5-21.5c0-5.555,2.111-10.826,5.945-14.842
					C8.776,7.735,9.134,7.727,9.36,7.943c0.226,0.216,0.234,0.573,0.019,0.799c-3.632,3.805-5.632,8.799-5.632,14.062
					c0,11.232,9.138,20.37,20.37,20.37s20.37-9.138,20.37-20.37s-9.138-20.37-20.37-20.37c-0.312,0-0.565-0.253-0.565-0.565
					s0.253-0.565,0.565-0.565c11.855,0,21.5,9.645,21.5,21.5S35.971,44.304,24.116,44.304z"/>
			</g>
			<polygon style="fill:#FFFFFF;" points="13.445,9.225 15.756,12.507 13.744,13.228 			"/>
			<polygon style="fill:#FFFFFF;" points="18.711,4.238 20.388,7.885 18.279,8.228 			"/>
			<polygon style="fill:#FFFFFF;" points="25.821,6.891 26.582,10.832 24.452,10.664 			"/>
			<polygon style="fill:#FFFFFF;" points="7.258,14.509 11.142,15.518 10.074,17.369 			"/>
			<path style="fill:#FFFFFF;" d="M21.573,24.303l-4.426,3.884l-5.576-1.891l-1.151-5.775l4.426-3.884l5.576,1.891L21.573,24.303z
				 M16.41,25.918c0.809-0.277,1.303-0.869,1.598-1.387l-0.679-0.512c-0.259,0.437-0.58,0.78-1.023,0.932
				c-1.024,0.351-1.7-0.213-2.063-1.272c-0.502-1.463-0.115-3.27,1.167-3.71c0.412-0.141,0.792-0.013,1.162,0.29l0.529-0.792
				c-0.533-0.463-1.221-0.661-1.945-0.413c-1.917,0.658-2.661,2.992-1.948,5.071C13.75,25.703,14.963,26.414,16.41,25.918z"/>
			<path style="fill:#FFFFFF;" d="M33.203,21.985l-4.426,3.884l-5.576-1.891l-1.151-5.775l4.426-3.884l5.576,1.891L33.203,21.985z
				 M28.649,23.538c0.809-0.277,1.303-0.869,1.598-1.387l-0.679-0.512c-0.259,0.437-0.58,0.78-1.023,0.932
				c-1.024,0.351-1.7-0.213-2.063-1.272c-0.502-1.463-0.115-3.27,1.167-3.71c0.412-0.141,0.792-0.013,1.162,0.29l0.529-0.792
				c-0.533-0.463-1.221-0.661-1.945-0.413c-1.917,0.658-2.661,2.992-1.948,5.071C25.989,23.323,27.202,24.034,28.649,23.538z"/>
			<path style="fill:#FFFFFF;" d="M29.396,33.217l-4.426,3.884l-5.576-1.891l-1.151-5.775l4.426-3.884l5.576,1.891L29.396,33.217z
				 M24.306,35.02c0.809-0.277,1.303-0.869,1.598-1.387l-0.679-0.512c-0.259,0.437-0.58,0.78-1.023,0.932
				c-1.024,0.351-1.7-0.213-2.063-1.272c-0.502-1.463-0.115-3.27,1.167-3.71c0.412-0.141,0.792-0.013,1.162,0.29l0.529-0.792
				c-0.533-0.463-1.221-0.661-1.945-0.413c-1.917,0.658-2.661,2.992-1.948,5.071C21.646,34.805,22.858,35.517,24.306,35.02z"/>
			<path style="fill:#FFFFFF;" d="M41.026,30.899L36.6,34.783l-5.576-1.891l-1.151-5.775l4.426-3.884l5.576,1.891L41.026,30.899z
				 M36.544,32.64c0.809-0.277,1.303-0.869,1.598-1.387l-0.679-0.512c-0.259,0.437-0.58,0.78-1.023,0.932
				c-1.024,0.351-1.7-0.213-2.063-1.272c-0.502-1.463-0.115-3.27,1.167-3.71c0.412-0.141,0.792-0.013,1.162,0.29l0.529-0.792
				c-0.533-0.463-1.221-0.661-1.945-0.413c-1.917,0.658-2.661,2.992-1.948,5.071C33.884,32.425,35.097,33.137,36.544,32.64z"/>
		</g>
	</g>
</g>
<g id="_x30_03" style="display:none;">
	<g style="display:inline;">
		<g>
			<path style="fill:#FFFFFF;" d="M3.426,57.944l-0.287,0.43l-0.896-0.364c0.973-1.415,1.57-2.962,1.813-4.599l0.917,0.143
				c-0.188,0.973-0.398,1.813-0.652,2.52v7.538H3.426V57.944z M6.93,62.851c1.238-0.21,2.133-0.895,2.674-2.056H8.742
				c-0.741,0.995-1.205,1.614-3.36,2.266l-0.42-0.818l0.718-0.21c0.951-0.342,1.614-0.774,1.968-1.238H6.377
				c-0.409,0.265-0.895,0.508-1.437,0.707l-0.475-0.774l0.641-0.254c0.608-0.255,1.061-0.586,1.348-0.962H4.852v-0.762h7.693v0.762
				H7.482l-0.298,0.454h4.985l0.177,0.044l0.111,0.122l0.044,0.298l-0.055,1.659c-0.033,0.486-0.143,0.828-0.354,1.027
				c-0.254,0.321-0.696,0.498-1.249,0.498c-0.287,0-0.619-0.044-0.995-0.133l-0.022-0.995c0.321,0.133,0.608,0.199,0.884,0.199
				c0.254,0,0.475-0.066,0.663-0.187c0.243-0.188,0.265-0.498,0.265-1.271c0-0.386,0-0.431-0.133-0.431h-0.984
				c-0.696,1.636-1.757,2.609-3.183,2.874L6.93,62.851z M12.113,58.209c0,0.078-0.033,0.122-0.11,0.122H6.067
				c-0.077,0-0.11-0.044-0.11-0.122v-2.961l-0.464,0.596l-0.796-0.464c0.575-0.619,0.973-1.337,1.183-2.089l0.862,0.255
				l-0.143,0.409h5.825v0.774H6.256l-0.243,0.421h5.991c0.077,0,0.11,0.033,0.11,0.11V58.209z M6.808,56.352h4.455v-0.453
				l-0.044-0.033H6.841c-0.033,0-0.044,0.011-0.033,0.033V56.352z M11.263,57.082H6.808v0.486l0.033,0.033h4.377l0.044-0.033V57.082
				z"/>
			<path style="fill:#FFFFFF;" d="M14.928,62.929v0.508h-1.017v-9.252c0-0.243,0.111-0.353,0.354-0.353h8.456
				c0.254,0,0.376,0.11,0.376,0.353v9.252h-1.028v-0.508H14.928z M14.928,61.901h7.14v-6.908c0-0.1-0.055-0.143-0.155-0.143h-6.831
				c-0.111,0-0.166,0.055-0.155,0.154V61.901z"/>
			<path style="fill:#FFFFFF;" d="M30.641,61.702c0.652,0.387,1.293,0.674,1.946,0.829l-0.254-0.487
				c0.63-0.32,1.116-0.619,1.448-0.884l0.464,0.718c-0.309,0.255-0.685,0.498-1.149,0.752c0.453,0.066,0.962,0.11,1.514,0.121
				l-0.287,0.873c-2.266-0.166-3.703-0.973-5.041-1.923h-2.189v0.896c0.177,0,1.426-0.122,2.034-0.244l0.133,0.885
				c-1.061,0.232-2.476,0.342-4.278,0.342l-0.11-0.896l1.326-0.021v-3.626c-0.453,0.265-0.873,0.454-1.26,0.585l-0.486-0.784
				c0.939-0.32,1.812-0.807,2.597-1.437h-2.498v-0.851h4.565v-0.42H25.38v-0.73h3.736v-0.464h-4.3v-0.762h2.62l-0.265-0.387
				l0.763-0.486c0.188,0.221,0.376,0.519,0.564,0.873h2.365c0.243-0.342,0.442-0.641,0.564-0.885l0.763,0.487l-0.232,0.398h2.366
				v0.762h-4.278v0.464h3.846v0.73h-3.846v0.42h4.499v0.851H31.99c0.741,0.642,1.658,1.095,2.73,1.327l-0.442,0.807
				c-0.508-0.133-0.984-0.309-1.448-0.542v2.442c0,0.177-0.078,0.265-0.254,0.265H30.641z M28.309,57.402
				c-0.531,0.509-1.028,0.929-1.492,1.238h5.394c-0.442-0.299-0.928-0.707-1.437-1.238H28.309z M27.281,59.37
				c-0.188,0-0.188,0.066-0.188,0.442h4.842c0-0.398,0-0.442-0.199-0.442H27.281z M31.813,60.972c0.121,0,0.121-0.044,0.121-0.442
				h-4.842v0.442H31.813z M28.055,57.822h2.984v0.552h-2.984V57.822z"/>
			<path style="fill:#FFFFFF;" d="M35.566,55.125h3.25v0.851h-3.25V55.125z M36.528,62.929v0.386h-0.851V59.58
				c0-0.177,0.089-0.265,0.277-0.265h2.454c0.188,0,0.287,0.089,0.287,0.265v3.062c0,0.188-0.1,0.288-0.299,0.288H36.528z
				 M35.743,53.744h2.774v0.851h-2.774V53.744z M35.831,56.551h2.641v0.851h-2.641V56.551z M35.831,57.978h2.686v0.851h-2.686
				V57.978z M37.843,60.31c0-0.1-0.055-0.143-0.155-0.143h-1.017c-0.1,0-0.144,0.044-0.144,0.143v1.768h1.139
				c0.121,0,0.177-0.055,0.177-0.177V60.31z M43.049,58.652v0.508h2.487v0.718h-5.604c-0.188,0-0.276-0.089-0.276-0.288v-2.465
				l-0.343,0.376l-0.685-0.53c0.53-0.454,0.917-1.116,1.149-1.956l0.829,0.232l-0.133,0.42h1.68l0.342-0.84l0.796,0.342
				l-0.188,0.498h2.432l-0.078,0.718h-2.41v0.464h2.376v0.685h-2.376v0.443h2.376v0.674H43.049z M42.364,62.996
				c-1.028,0.364-2.167,0.575-3.382,0.641l-0.21-0.863c0.895,0,1.735-0.1,2.509-0.288l-1.249-0.774l0.42-0.629
				c0.652,0.453,1.249,0.807,1.79,1.061l0.652-0.299c0.464-0.21,0.862-0.453,1.183-0.707c0-0.1-0.066-0.121-0.143-0.11h-4.521
				v-0.763h5.604l0.575,0.365c0.033,0.022,0.044,0.033,0.044,0.056c0,0.056-0.486,0.896-2.277,1.857
				c0.674,0.143,1.47,0.221,2.398,0.21l-0.232,0.852c-0.973-0.045-1.912-0.199-2.818-0.498L42.364,62.996z M43.326,54.595h-1.868
				v0.475h-0.851v-0.475h-1.492v-0.762h1.492v-0.498h0.851v0.498h1.868v-0.498h0.851v0.498h1.47v0.762h-1.47v0.475h-0.851V54.595z
				 M40.507,56.85h1.691v-0.464h-1.581c-0.078,0-0.111,0.033-0.111,0.111V56.85z M40.507,57.978h1.691v-0.443h-1.691V57.978z
				 M42.198,58.652h-1.691v0.386c0,0.077,0.033,0.122,0.111,0.122h1.581V58.652z"/>
		</g>
		<g>
			<g>
				<path style="fill:#FFFFFF;" d="M24.053,44.331c11.855,0,21.5-9.645,21.5-21.5s-9.645-21.5-21.5-21.5s-21.5,9.645-21.5,21.5
					c0,2.568,0.448,5.081,1.333,7.468c0.108,0.293,0.434,0.442,0.726,0.334c0.293-0.108,0.442-0.434,0.334-0.726
					c-0.838-2.261-1.262-4.641-1.262-7.075c0-11.232,9.138-20.37,20.37-20.37s20.37,9.138,20.37,20.37S35.285,43.2,24.053,43.2
					c-1.758,0-3.504-0.224-5.188-0.667c-0.301-0.079-0.611,0.101-0.69,0.403c-0.079,0.302,0.101,0.611,0.403,0.69
					C20.356,44.094,22.198,44.331,24.053,44.331z"/>
			</g>
			<polygon style="fill:#FFFFFF;" points="18.744,28.42 15.756,31.099 17.555,32.253 			"/>
			<polygon style="fill:#FFFFFF;" points="12.343,28.674 9.355,31.353 11.153,32.507 			"/>
			<polygon style="fill:#FFFFFF;" points="19.414,35.148 16.992,38.348 18.978,39.137 			"/>
			<polygon style="fill:#FFFFFF;" points="13.452,36.042 9.961,38.022 11.472,39.533 			"/>
			<polygon style="fill:#FFFFFF;" points="6.831,34.782 3.204,36.5 4.599,38.118 			"/>
			<polygon style="fill:#FFFFFF;" points="14.342,41.578 11.92,44.779 13.906,45.568 			"/>
			<path style="fill:#FFFFFF;" d="M11.266,20.132c1.928,3.412,5.777,5.435,9.21,7.034c1.831,0.853,3.663,1.706,5.494,2.559
				c2.471,1.151,4.943,2.302,7.414,3.453c2.566,1.18,5.631,0.046,6.811-2.52c1.18-2.566,0.046-5.631-2.52-6.811
				c-3.044-1.4-6.089-2.8-9.133-4.2c-2.135-0.982-4.211-1.844-6.226-3.035c-2.121-1.253-4.73-2.131-6.108-4.307
				c-0.561-0.886-0.785-2.623-2.018-2.82c-2.819-0.449-3.494,3.642-3.631,5.61c-0.092,1.326-0.086,2.782,0.292,4.069
				C10.949,19.5,11.091,19.822,11.266,20.132z M21.032,21.845L21.032,21.845c0.97-2.11,3.491-3.043,5.601-2.073l0,0
				c2.11,0.97,3.043,3.491,2.073,5.601l0,0c-0.97,2.11-3.491,3.043-5.601,2.073l0,0C20.994,26.476,20.062,23.956,21.032,21.845z"/>
		</g>
	</g>
</g>
<g id="_x30_04" style="display:none;">
	<g style="display:inline;">
		<g>
			<g>
				<path style="fill:#FFFFFF;" d="M24,44.326c-11.855,0-21.5-9.645-21.5-21.5c0-4.564,1.412-8.924,4.083-12.608
					c0.183-0.253,0.537-0.309,0.789-0.126c0.253,0.183,0.309,0.537,0.126,0.789c-2.53,3.489-3.867,7.62-3.867,11.944
					c0,11.232,9.138,20.37,20.37,20.37s20.37-9.138,20.37-20.37S35.232,2.456,24,2.456c-0.312,0-0.565-0.253-0.565-0.565
					S23.688,1.326,24,1.326c11.855,0,21.5,9.645,21.5,21.5S35.855,44.326,24,44.326z"/>
			</g>
			<path style="fill:#FFFFFF;" d="M24.978,31.813c-1.779,0-3.417-1.104-4.047-2.849l-1.374-3.806H5.511
				c-0.234,0-0.424-0.19-0.424-0.424c0-0.234,0.19-0.424,0.424-0.424h14.343c0.179,0,0.338,0.112,0.399,0.28l1.475,4.086
				c0.604,1.673,2.361,2.613,4.088,2.187c0.981-0.242,1.805-0.897,2.261-1.799c0.456-0.901,0.497-1.953,0.111-2.887l-0.529-1.282
				c-0.054-0.131-0.039-0.28,0.039-0.397c0.079-0.118,0.211-0.188,0.352-0.188h15.061c0.234,0,0.424,0.19,0.424,0.424
				c0,0.234-0.19,0.424-0.424,0.424H28.684l0.287,0.696c0.48,1.162,0.429,2.472-0.138,3.594c-0.568,1.122-1.594,1.938-2.814,2.239
				C25.671,31.772,25.322,31.813,24.978,31.813z"/>
			<path style="fill:#FFFFFF;" d="M12.721,5.327c0,0,11.249,11.689,14.207,20.554c1.04,3.116-4.08,4.955-4.685,1.351
				C20.558,17.201,12.721,5.327,12.721,5.327z"/>
			<polygon style="fill:#FFFFFF;" points="30.602,31.067 33.293,34.044 34.44,32.241 			"/>
			<polygon style="fill:#FFFFFF;" points="31.696,36.009 33.457,39.615 35.058,38.201 			"/>
			<polygon style="fill:#FFFFFF;" points="34.72,28.133 38.082,30.325 38.73,28.289 			"/>
			<polygon style="fill:#FFFFFF;" points="26.897,34.143 26.897,38.156 28.957,37.587 			"/>
			<polygon style="fill:#FFFFFF;" points="22.41,33.202 19.716,36.177 21.624,37.138 			"/>
			<polygon style="fill:#FFFFFF;" points="23.784,37.858 22.225,41.557 24.344,41.832 			"/>
			<polygon style="fill:#FFFFFF;" points="19.891,29.112 16.121,30.488 17.361,32.228 			"/>
			<polygon style="fill:#FFFFFF;" points="17.17,35.572 13.818,37.779 15.426,39.186 			"/>
			<polygon style="fill:#FFFFFF;" points="13.197,28.969 9.207,29.404 9.996,31.39 			"/>
		</g>
		<g>
			<path style="fill:#FFFFFF;" d="M10.818,62.425c1.061-0.121,1.923-0.254,2.575-0.42c0.309-0.973,0.519-1.78,0.597-2.421
				l0.884,0.21c-0.077,0.575-0.232,1.205-0.431,1.923l0.906-0.342l0.364,0.863c-1.226,0.463-2.763,0.839-4.598,1.094L10.818,62.425z
				 M10.951,53.749h4.377V54.6h-4.377V53.749z M15.129,59.087c0,0.089-0.044,0.133-0.122,0.133h-3.758
				c-0.077,0-0.121-0.044-0.121-0.133v-3.581c0-0.078,0.044-0.122,0.121-0.122h3.758c0.078,0,0.122,0.044,0.122,0.122V59.087z
				 M11.835,61.983c-0.133-0.873-0.299-1.558-0.486-2.056l0.873-0.243c0.221,0.575,0.398,1.271,0.52,2.111L11.835,61.983z
				 M14.189,56.235h-2.133c-0.033,0-0.044,0.012-0.033,0.033v2.056l0.033,0.045h2.133l0.044-0.045v-2.056L14.189,56.235z
				 M17.781,62.801c-0.807,0.475-1.591,0.774-2.354,0.873c0.011-0.353-0.033-0.652-0.11-0.884c0.696-0.1,1.37-0.376,1.99-0.807
				L17.781,62.801z M20.722,61.807c0,0.088-0.044,0.133-0.122,0.133h-4.41c-0.078,0-0.122-0.045-0.122-0.133v-6.168
				c0-0.078,0.044-0.122,0.122-0.122h1.216l0.387-0.917H15.88v-0.851h5.106V54.6h-2.266l-0.188,0.519l-0.166,0.398H20.6
				c0.078,0,0.122,0.044,0.122,0.122V61.807z M16.919,57.374h2.951v-0.973l-0.044-0.033h-2.874l-0.033,0.033V57.374z M16.919,59.231
				h2.951v-1.006h-2.951V59.231z M19.87,60.083h-2.951v0.961l0.033,0.044h2.874c0.033,0,0.044-0.011,0.044-0.044V60.083z
				 M20.766,63.653c-0.718-0.354-1.315-0.597-1.779-0.73l0.309-0.796c0.53,0.133,1.139,0.387,1.813,0.741L20.766,63.653z"/>
			<path style="fill:#FFFFFF;" d="M29.242,62.746c0.719-0.033,1.426-0.122,2.111-0.277c-0.498-0.331-0.928-0.685-1.249-1.005
				c-0.619,0.741-1.504,1.426-2.642,2.056l-0.619-0.73c1.249-0.652,2.144-1.348,2.686-2.056h-2.586v-0.851h3.062l0.354-0.796
				l-3.294,0.265l-0.221-0.829l0.641-0.044l0.309-0.774H26.91v-0.763h0.884v-3.127c-0.011-0.133,0.056-0.199,0.177-0.199h4.045
				v0.774h-3.283c-0.066,0-0.1,0.021-0.088,0.088v0.387h3.238v0.596h-3.238v0.443h3.238v0.596h-3.238v0.442h3.802v0.763h-0.818
				c0.431,0.552,0.774,0.995,0.973,1.315l-0.707,0.442l-0.332-0.475l-0.917,0.066l0.597,0.232l-0.232,0.597h6.057v0.851h-6.455
				c0.53,0.619,1.127,1.094,1.757,1.404c0.674-0.288,1.448-0.73,2.266-1.305l0.508,0.741c-0.597,0.42-1.094,0.73-1.514,0.94
				l-0.078,0.044c0.486,0.122,1.061,0.177,1.725,0.177c0.52,0,1.105-0.033,1.746-0.11l-0.088,0.94
				c-0.453,0.056-0.884,0.077-1.315,0.077c-1.149,0-2.222-0.199-3.195-0.608c-1.094,0.354-2.1,0.575-2.984,0.63L29.242,62.746z
				 M30.679,57.872l0.232-0.166h-2.2l-0.254,0.707l2.542-0.177L30.679,57.872z M32.481,54.677c1.072-0.21,2.023-0.63,2.818-1.226
				l0.531,0.729c-1.094,0.752-2.111,1.205-3.007,1.348L32.481,54.677z M33.708,57.695c0.917-0.188,1.89-0.707,2.885-1.526
				l0.542,0.707c-1.293,1.039-2.719,1.659-4.233,1.858l-0.254-0.863L33.708,57.695z M32.69,56.235
				c1.249-0.232,2.343-0.707,3.261-1.403l0.52,0.729c-1.227,0.829-2.377,1.348-3.437,1.526L32.69,56.235z M35.498,59.772
				c-0.553-0.231-0.995-0.376-1.348-0.442l0.243-0.818c0.398,0.066,0.862,0.21,1.393,0.442L35.498,59.772z"/>
		</g>
	</g>
</g>
<g id="_x30_05" style="display:none;">
	<g style="display:inline;">
		<g>
			<g>
				<path style="fill:#FFFFFF;" d="M11.149,58.065c0.1-0.188,0.232-0.487,0.354-0.896h-0.774c-0.221,0-0.342-0.11-0.342-0.354
					v-1.171h0.718v0.685c0,0.077,0.044,0.122,0.122,0.122h0.431l0.044-0.674v-0.785h-0.663l-0.431,0.531
					c-0.221-0.265-0.431-0.453-0.619-0.575c0.387-0.431,0.685-0.984,0.862-1.625l0.851,0.309l-0.21,0.508h3.25
					c0.188,0.044,0.199,0.066,0.254,0.276c0,1.857-0.11,2.974-0.276,3.305c-0.299,0.531-0.696,0.62-1.172,0.62
					c-0.243,0-0.508-0.033-0.818-0.1v-0.884c0.321,0.099,0.586,0.154,0.784,0.154c0.243,0,0.575,0,0.608-1.139v-1.359l-0.077-0.022
					h-1.581v0.785l-0.044,0.674h0.354c0.078,0,0.122-0.045,0.122-0.122v-0.685h0.718v1.171c0,0.244-0.121,0.354-0.354,0.354h-0.95
					c-0.111,0.498-0.243,0.873-0.342,1.061L11.149,58.065z M10.088,62.984c0.906-0.343,1.172-0.774,1.172-0.796h-0.531
					c-0.221,0-0.342-0.122-0.342-0.365v-1.514h0.718v1.028c0,0.077,0.044,0.121,0.122,0.121h0.376l0.055-0.42v-1.514h-0.563
					c-0.089,0.232-0.221,0.453-0.376,0.685c-0.254-0.232-0.497-0.386-0.696-0.486c0.299-0.431,0.498-0.962,0.563-1.57l0.884,0.199
					l-0.078,0.321h3.216c0.199,0.044,0.199,0.077,0.254,0.287c0,2.222-0.121,3.526-0.309,3.902c-0.365,0.652-0.796,0.73-1.216,0.73
					c-0.254,0-0.564-0.045-0.906-0.122v-0.884c0.376,0.1,0.663,0.154,0.862,0.154c0.1,0,0.177-0.011,0.232-0.033
					c0.265-0.143,0.431-0.629,0.464-1.426v-1.735l-0.078-0.022h-1.481v1.514l-0.044,0.42h0.431c0.078,0,0.111-0.044,0.111-0.121
					v-1.028h0.729v1.514c0,0.243-0.121,0.365-0.354,0.365h-1.139c-0.321,0.619-0.84,1.127-1.536,1.481L10.088,62.984z
					 M15.847,62.984c0.685-0.31,1.337-0.785,1.956-1.393c-0.52-0.774-0.984-1.824-1.348-3.095h-0.21c0,0.995,0,3.128-0.74,5.14
					l-0.918-0.398c0.508-1.271,0.763-2.653,0.763-4.145V54.66c0-0.165,0.078-0.243,0.243-0.243h1.79v-0.984h0.895v0.984h1.271
					l0.751,0.454c-0.033,0.652-0.232,1.348-0.563,2.044l-0.829-0.231c0.188-0.464,0.342-1.028,0.342-1.294
					c0-0.056-0.033-0.077-0.111-0.077h-0.862v2.321h1.426l0.475,0.365c-0.299,1.481-0.763,2.697-1.382,3.603
					c0.42,0.497,0.94,1.005,1.548,1.536l-0.807,0.52c-0.464-0.443-0.884-0.918-1.26-1.404c-0.619,0.674-1.194,1.139-1.702,1.392
					L15.847,62.984z M16.244,57.634h1.139v-2.321H16.4c-0.1,0-0.155,0.055-0.155,0.154V57.634z M17.295,58.496
					c0.309,1.083,0.597,1.78,1.039,2.443c0.63-0.884,0.995-2.045,0.995-2.255c0-0.133-0.066-0.199-0.232-0.188H17.295z"/>
				<path style="fill:#FFFFFF;" d="M28.015,59.026l-1.757,0.221c-0.033-0.244-0.1-0.52-0.21-0.829l0.763-0.1
					c0.287-0.287,0.619-0.674,0.95-1.127c-0.553-0.597-1.127-1.095-1.713-1.47l0.486-0.763l0.431,0.31
					c0.342-0.576,0.674-1.217,1.006-1.891l0.773,0.454c-0.243,0.519-0.619,1.172-1.149,1.979l0.674,0.652
					c0.398-0.674,0.685-1.315,0.884-1.956l0.851,0.276c-0.243,0.929-0.928,2.067-2.023,3.382l1.548-0.21l-0.376-0.741l0.784-0.365
					c0.365,0.597,0.685,1.36,0.984,2.277l-0.807,0.332l-0.243-0.663l-0.95,0.133v4.698h-0.906V59.026z M26.136,62.785
					c0.298-1.261,0.464-2.277,0.486-3.062l0.807,0.1c-0.022,0.873-0.188,1.923-0.486,3.116L26.136,62.785z M30.17,59.711
					l0.597,2.277l-0.84,0.221l-0.564-2.233L30.17,59.711z M30.071,62.885c1.106-0.487,2.034-1.161,2.753-2.023
					c-0.431-0.543-1.702-2.476-1.669-5.395h-0.807v-0.939h2.531v-1.018h0.94v1.018h2.42v0.939h-0.884v0.608
					c0,1.68-0.475,3.273-1.415,4.754c0.774,0.828,1.569,1.536,2.365,2.122l-0.784,0.663c-0.884-0.652-1.603-1.348-2.145-2.044
					c-0.652,0.751-1.536,1.448-2.653,2.044L30.071,62.885z M32.071,55.467c-0.011,0.265-0.022,0.509-0.022,0.719
					c0,0.508,0.033,0.851,0.1,1.05c0.188,1.105,0.597,2.067,1.226,2.863c0.663-1.062,1.039-2.41,1.084-4.024v-0.608H32.071z"/>
			</g>
		</g>
		<g>
			<g>
				<path style="fill:#FFFFFF;" d="M23.279,44.332c-11.855,0-21.5-9.645-21.5-21.5s9.645-21.5,21.5-21.5s21.5,9.645,21.5,21.5
					c0,0.312-0.253,0.565-0.565,0.565s-0.565-0.253-0.565-0.565c0-11.232-9.138-20.37-20.37-20.37S2.91,11.599,2.91,22.831
					s9.138,20.37,20.37,20.37c5.863,0,11.445-2.529,15.315-6.939c0.206-0.234,0.563-0.258,0.798-0.052
					c0.235,0.206,0.258,0.563,0.052,0.798C35.359,41.662,29.467,44.332,23.279,44.332z"/>
			</g>
			<path style="fill:#FFFFFF;" d="M38.358,18.452c0,0-8.155-3.915-12.607-1.028C29.289,16.864,33.351,16.985,38.358,18.452z"/>
			<path style="fill:#FFFFFF;" d="M36.782,23.665c0,0-5.862,5.124-9.905,0.319C28.797,27.45,33.547,27.8,36.782,23.665z"/>
			<path style="fill:#FFFFFF;" d="M9.579,13.249c0,0,7.806,2.061,13.045-0.813c-0.279,0.04-0.434,0.068-0.434,0.068
				c0.217-0.072,0.438-0.136,0.661-0.196c0.055-0.032,0.11-0.064,0.164-0.097c-0.029,0.026-0.062,0.052-0.092,0.078
				c4.63-1.221,10.449,0.042,12.582,2.292c-4.181-3.032-10.758-2.431-12.734-2.165C20.182,14.447,14.026,15.121,9.579,13.249z"/>
			<path style="fill:#FFFFFF;" d="M9.936,10.538c0,0,7.806,2.061,13.045-0.813c-0.279,0.04-0.434,0.068-0.434,0.068
				c0.217-0.072,0.438-0.136,0.661-0.196c0.055-0.032,0.11-0.064,0.164-0.097c-0.029,0.026-0.062,0.052-0.092,0.078
				c4.63-1.221,10.449,0.042,12.582,2.292C31.68,8.838,25.103,9.438,23.128,9.704C20.54,11.736,14.383,12.409,9.936,10.538z"/>
			<path style="fill:#FFFFFF;" d="M37.677,23.504c0,0,2.261,0.061,2.757-1.648C40.3,23.165,39.205,23.872,37.677,23.504z"/>
			<path style="fill:#FFFFFF;" d="M37.656,24.284c0,0,2.296,1.044,3.863,0C40.574,25.193,39.007,25.232,37.656,24.284z"/>
			<path style="fill:#FFFFFF;" d="M30.47,36.74c0,0-1.465-4.528-5.006-5.145C28.004,31.575,30.09,33.608,30.47,36.74z"/>
			<path style="fill:#FFFFFF;" d="M37.333,25.17c0,0,1.088,1.922,2.729,1.219C38.929,27.133,37.802,26.683,37.333,25.17z"/>
			<path style="fill:#FFFFFF;" d="M25.468,34.952c0,0-0.947,0.674-1.88,0.741c-0.934,0.067-1.556,0.113-2.646-0.381
				c0.778,1.123,1.18,1.19,2.263,1.19S25.014,35.626,25.468,34.952z"/>
			<polygon style="fill:#FFFFFF;" points="36.599,28.007 40.589,28.443 39.8,30.429 			"/>
			<polygon style="fill:#FFFFFF;" points="42.208,26.481 46.221,26.481 45.652,28.541 			"/>
			<polygon style="fill:#FFFFFF;" points="40.445,33.232 44.214,34.611 42.972,36.35 			"/>
		</g>
	</g>
</g>
<g id="_x30_06" style="display:none;">
	<g style="display:inline;">
		<g>
			<path style="fill:#FFFFFF;" d="M3.633,59.972c0,0.884-0.066,2.067-0.332,3.57l-0.917-0.188c0.254-1.171,0.398-2.465,0.398-3.835
				v-5.671c0-0.143,0.066-0.21,0.199-0.21h2.167l0.133,0.056l0.078,0.154v9.175c0,0.519-0.498,0.619-0.553,0.619l-1.039-0.033
				l-0.121-0.94c0.376,0.077,0.619,0.133,0.729,0.133c0.121,0,0.133-0.066,0.133-0.11v-2.719H3.633z M3.633,56.445h0.873v-1.868
				l-0.033-0.066l-0.066-0.022H3.721c-0.055,0-0.088,0.033-0.088,0.089V56.445z M3.633,59.121h0.873v-1.824H3.633V59.121z
				 M12.232,59.894c-1.227-0.475-2.31-1.072-3.216-1.79c-0.752,0.608-1.78,1.204-3.062,1.757l-0.464-0.84
				c1.702-0.553,2.819-1.183,3.316-1.869l0.752,0.188l-0.243-0.718c0.453-0.178,0.951-0.41,1.459-0.697l0.354,0.774
				c-0.674,0.342-1.194,0.575-1.536,0.707l-0.066,0.1c0.906,0.674,1.978,1.205,3.183,1.548L12.232,59.894z M5.633,55.373
				c0.497-0.198,0.962-0.442,1.382-0.696l0.354,0.762l-1.437,0.73L5.633,55.373z M5.667,53.682h2.796
				c0.143,0,0.221,0.078,0.221,0.221v3.36H7.833v-2.609c0-0.077-0.033-0.121-0.11-0.121H5.667V53.682z M5.7,57.042
				c0.442-0.21,0.95-0.498,1.492-0.851l0.398,0.741c-0.641,0.409-1.161,0.696-1.548,0.873L5.7,57.042z M5.799,60.292
				c1.238-0.298,2.288-0.828,3.172-1.569l0.542,0.663c-1.161,0.928-2.277,1.503-3.316,1.735L5.799,60.292z M6.617,61.508
				c1.238-0.288,2.443-0.985,3.593-2.056l0.563,0.629c-1.249,1.194-2.752,2.001-4.454,2.398l-0.31-0.84L6.617,61.508z M6.219,62.824
				c1.636-0.221,3.57-0.464,5.062-2.609l0.796,0.442l-0.508,0.697c-1.017,1.183-2.686,1.967-5.007,2.344L6.219,62.824z
				 M9.038,55.418c0.265-0.1,0.763-0.354,1.47-0.741l0.354,0.762c-0.398,0.255-0.917,0.509-1.514,0.774L9.038,55.418z M9.115,53.727
				h2.896c0.132,0,0.21,0.077,0.21,0.21v4.023H11.37v-3.261c0-0.077-0.033-0.121-0.11-0.121H9.115V53.727z"/>
			<path style="fill:#FFFFFF;" d="M18.76,59.607h-2.896c-0.078,0-0.122-0.044-0.122-0.143v-3.858c0-0.088,0.044-0.133,0.122-0.133
				h2.852v-0.895h-3.382c-0.077,0-0.121,0.044-0.121,0.121v3.67c0,1.835-0.299,3.449-0.851,4.852l-0.917-0.309
				c0.674-1.668,0.807-2.874,0.829-4.841v-4.167c0-0.177,0.088-0.265,0.254-0.265h8.732v0.94h-3.603v0.895h3.139
				c0.1,0,0.144,0.045,0.144,0.133v3.858c0,0.1-0.044,0.143-0.144,0.143H19.7v2.874c0,0.211-0.077,1.095-1.149,1.095
				c-0.387,0-0.884-0.089-1.492-0.265l0.044-0.973l0.752,0.243c0.177,0.045,0.342,0.056,0.464,0.056c0.332,0,0.442-0.11,0.442-0.409
				V59.607z M14.837,62.536c0.906-0.652,1.613-1.448,2.111-2.365l0.818,0.464c-0.685,1.16-1.448,2.033-2.233,2.553L14.837,62.536z
				 M16.682,57.119h5.317v-0.707c0-0.033-0.011-0.044-0.044-0.044h-5.239c-0.033,0-0.044,0.011-0.033,0.044V57.119z M21.999,58.015
				h-5.317v0.641c-0.011,0.033,0,0.044,0.033,0.056h5.239l0.044-0.056V58.015z M22.883,63.431c-0.806-1.161-1.525-2.034-2.144-2.609
				l0.707-0.629c0.707,0.652,1.426,1.547,2.189,2.652L22.883,63.431z"/>
			<path style="fill:#FFFFFF;" d="M32.274,58.092c-2.41-0.033-4.399-0.177-5.67-1.392c-0.387,0.718-0.873,1.359-1.437,1.901
				l-0.729-0.575c0.95-0.873,1.592-1.912,1.934-3.128l0.818,0.255l-0.232,0.718c0.497,0.498,1.205,0.873,2.111,1.128v-2.377h-4.134
				v-0.851h9.185l0.508,0.365c-0.199,0.608-0.409,1.16-0.663,1.691l-0.807-0.265l0.299-0.685l0.033-0.199
				c-0.011-0.033-0.033-0.056-0.088-0.056h-3.437v0.94h3.128v0.807h-3.128v0.763h0.055c0.608,0.044,1.249,0.066,1.924,0.066h2.785
				l-0.232,0.895H32.274z M33.578,63.055l-8.953,0.443l-0.1-0.885l4.609-0.232v-0.828h-3.493c-0.078,0-0.122-0.044-0.122-0.133
				v-2.377c0-0.066,0.044-0.11,0.122-0.11h3.493v-0.652h0.94v0.652h3.515c0.089,0,0.133,0.044,0.133,0.11v2.377
				c0,0.089-0.044,0.133-0.133,0.133c0.431,0.508,0.829,1.05,1.183,1.581l-0.796,0.498L33.578,63.055z M29.135,60.745v-1.006h-2.686
				c-0.033,0-0.033,0.011-0.033,0.033v0.929l0.033,0.044H29.135z M30.074,59.739v1.006h2.708l0.044-0.044v-0.929l-0.044-0.033
				H30.074z M32.617,61.828l0.398-0.276h-2.94v0.784l2.84-0.133L32.617,61.828z"/>
			<path style="fill:#FFFFFF;" d="M37.265,63v0.486h-0.984v-8.522c0-0.221,0.11-0.332,0.331-0.332h2.863
				c0.232-0.508,0.387-0.928,0.486-1.26l0.884,0.321l-0.321,0.939h4.211c0.221,0,0.342,0.111,0.342,0.332v8.522h-0.984V63H37.265z
				 M44.096,55.716c0-0.1-0.044-0.144-0.144-0.144h-6.543c-0.111,0-0.155,0.056-0.144,0.144v2.631h6.831V55.716z M37.265,62.061
				h6.831v-2.774h-6.831V62.061z"/>
		</g>
		<g>
			<g>
				<path style="fill:#FFFFFF;" d="M24.116,44.304c-11.855,0-21.5-9.645-21.5-21.5c0-5.555,2.111-10.826,5.945-14.842
					C8.776,7.735,9.134,7.727,9.36,7.943c0.226,0.216,0.234,0.573,0.019,0.799c-3.632,3.805-5.632,8.799-5.632,14.062
					c0,11.232,9.138,20.37,20.37,20.37s20.37-9.138,20.37-20.37s-9.138-20.37-20.37-20.37c-0.312,0-0.565-0.253-0.565-0.565
					s0.253-0.565,0.565-0.565c11.855,0,21.5,9.645,21.5,21.5S35.971,44.304,24.116,44.304z"/>
			</g>
			<polygon style="fill:#FFFFFF;" points="13.445,9.225 15.756,12.507 13.744,13.228 			"/>
			<polygon style="fill:#FFFFFF;" points="18.711,4.238 20.388,7.885 18.279,8.228 			"/>
			<polygon style="fill:#FFFFFF;" points="25.821,6.891 26.582,10.832 24.452,10.664 			"/>
			<polygon style="fill:#FFFFFF;" points="7.258,14.509 11.142,15.518 10.074,17.369 			"/>
			<path style="fill:#FFFFFF;" d="M21.573,24.303l-4.426,3.884l-5.576-1.891l-1.151-5.775l4.426-3.884l5.576,1.891L21.573,24.303z
				 M16.41,25.918c0.809-0.277,1.303-0.869,1.598-1.387l-0.679-0.512c-0.259,0.437-0.58,0.78-1.023,0.932
				c-1.024,0.351-1.7-0.213-2.063-1.272c-0.502-1.463-0.115-3.27,1.167-3.71c0.412-0.141,0.792-0.013,1.162,0.29l0.529-0.792
				c-0.533-0.463-1.221-0.661-1.945-0.413c-1.917,0.658-2.661,2.992-1.948,5.071C13.75,25.703,14.963,26.414,16.41,25.918z"/>
			<path style="fill:#FFFFFF;" d="M33.203,21.985l-4.426,3.884l-5.576-1.891l-1.151-5.775l4.426-3.884l5.576,1.891L33.203,21.985z
				 M28.649,23.538c0.809-0.277,1.303-0.869,1.598-1.387l-0.679-0.512c-0.259,0.437-0.58,0.78-1.023,0.932
				c-1.024,0.351-1.7-0.213-2.063-1.272c-0.502-1.463-0.115-3.27,1.167-3.71c0.412-0.141,0.792-0.013,1.162,0.29l0.529-0.792
				c-0.533-0.463-1.221-0.661-1.945-0.413c-1.917,0.658-2.661,2.992-1.948,5.071C25.989,23.323,27.202,24.034,28.649,23.538z"/>
			<path style="fill:#FFFFFF;" d="M29.396,33.217l-4.426,3.884l-5.576-1.891l-1.151-5.775l4.426-3.884l5.576,1.891L29.396,33.217z
				 M24.306,35.02c0.809-0.277,1.303-0.869,1.598-1.387l-0.679-0.512c-0.259,0.437-0.58,0.78-1.023,0.932
				c-1.024,0.351-1.7-0.213-2.063-1.272c-0.502-1.463-0.115-3.27,1.167-3.71c0.412-0.141,0.792-0.013,1.162,0.29l0.529-0.792
				c-0.533-0.463-1.221-0.661-1.945-0.413c-1.917,0.658-2.661,2.992-1.948,5.071C21.646,34.805,22.858,35.517,24.306,35.02z"/>
			<path style="fill:#FFFFFF;" d="M41.026,30.899L36.6,34.783l-5.576-1.891l-1.151-5.775l4.426-3.884l5.576,1.891L41.026,30.899z
				 M36.544,32.64c0.809-0.277,1.303-0.869,1.598-1.387l-0.679-0.512c-0.259,0.437-0.58,0.78-1.023,0.932
				c-1.024,0.351-1.7-0.213-2.063-1.272c-0.502-1.463-0.115-3.27,1.167-3.71c0.412-0.141,0.792-0.013,1.162,0.29l0.529-0.792
				c-0.533-0.463-1.221-0.661-1.945-0.413c-1.917,0.658-2.661,2.992-1.948,5.071C33.884,32.425,35.097,33.137,36.544,32.64z"/>
		</g>
	</g>
</g>
<g id="_x30_07" style="display:none;">
	<g style="display:inline;">
		<g>
			<g>
				<path style="fill:#FFFFFF;" d="M12.443,61.556c-0.155,0.984-0.376,1.868-0.652,2.641l-0.95-0.255
					c0.508-1.436,0.785-2.741,0.807-3.879v-2.94c0-0.177,0.088-0.255,0.254-0.255h3.25c0.188,0,0.287,0.078,0.287,0.265v6.024
					c0,0.95-0.608,1.083-1.282,1.083c-0.31,0-0.685-0.033-1.116-0.1l-0.022-1.039c0.542,0.166,0.94,0.255,1.172,0.255
					c0.254,0,0.354-0.133,0.354-0.464v-1.337H12.443z M13.471,55.642h-1.072c-0.288,0.431-0.564,0.774-0.807,0.995l-0.719-0.498
					c0.608-0.586,1.072-1.271,1.37-2.068l0.796,0.299l-0.188,0.421h2.73v0.851h-1.205l0.155,0.718l-0.851,0.178L13.471,55.642z
					 M12.531,60.704h2.012v-1.083h-2.012V60.704z M12.542,58.77h2.001v-0.94c0-0.077-0.044-0.11-0.121-0.11h-1.758
					c-0.077,0-0.121,0.044-0.121,0.121V58.77z M15.516,63.655c1.094-1.083,1.724-2.819,1.846-5.206h-1.426v-0.851h1.447v-1.105
					h0.906v1.095h2.023c0.354,0,0.354,0.177,0.354,1.017c0,0.585-0.022,1.481-0.055,2.674c-0.022,1.537-0.354,2.498-0.95,2.841
					c-0.188,0.11-0.442,0.166-0.774,0.166c-0.343,0-0.763-0.056-1.26-0.178l-0.078-1.094c0.509,0.166,0.918,0.254,1.205,0.254
					c0.364,0,0.553-0.154,0.763-0.641c0.232-0.585,0.232-2.94,0.232-3.216c0-0.575,0-0.962-0.177-0.962h-1.315l-0.1,0.973
					c0,0.21-0.276,2.973-1.835,4.764L15.516,63.655z M18.61,56.714c-0.143-0.442-0.276-0.818-0.409-1.116h-1.161l-0.707,1.017
					l-0.763-0.442c0.575-0.63,0.973-1.327,1.183-2.078l0.818,0.243l-0.155,0.409h3.482v0.852h-1.757l0.276,0.84L18.61,56.714z"/>
				<path style="fill:#FFFFFF;" d="M28.391,57.167v-2.531c0-0.199,0.1-0.299,0.309-0.299h6.621c0.21,0,0.321,0.1,0.321,0.299v2.531
					h0.763l0.774,0.387c-0.033,0.685-0.188,1.481-0.486,2.398l-0.851-0.276c0.21-0.741,0.321-1.249,0.332-1.526
					c0-0.088-0.033-0.132-0.111-0.132h-8.002c-0.055,0-0.088,0.033-0.088,0.088v1.703h-0.895v-2.476c0-0.11,0.055-0.166,0.166-0.166
					H28.391z M29.595,62.527v1.703h-0.939v-5.361c0-0.133,0.077-0.21,0.21-0.21h6.29c0.143,0,0.221,0.077,0.221,0.21v4.399
					c0,0.178-0.022,1.084-1.338,1.084c-0.398,0-0.884-0.066-1.481-0.221l0.022-1.039c0.575,0.199,1.005,0.288,1.304,0.288
					c0.553,0,0.553-0.442,0.553-0.487v-0.365H29.595z M29.33,57.167h1.591v-1.149c-0.011-0.121,0.055-0.187,0.177-0.187h3.603
					v-0.553c0-0.088-0.044-0.133-0.144-0.133h-5.095c-0.089,0-0.133,0.045-0.133,0.133V57.167z M29.595,60.162h4.842v-0.63
					c0-0.044-0.022-0.065-0.078-0.065h-4.698c-0.044,0-0.066,0.021-0.066,0.065V60.162z M29.595,61.72h4.842V60.98h-4.842V61.72z
					 M31.817,57.167h2.885v-0.575h-2.796c-0.078,0-0.1,0.045-0.089,0.1V57.167z"/>
			</g>
		</g>
		<g>
			<g>
				<path style="fill:#FFFFFF;" d="M24,44.968c11.855,0,21.5-9.645,21.5-21.5s-9.645-21.5-21.5-21.5
					c-1.955,0-3.892,0.262-5.759,0.78c-0.301,0.083-0.477,0.395-0.394,0.696c0.083,0.301,0.395,0.478,0.696,0.394
					c1.768-0.49,3.604-0.739,5.457-0.739c11.232,0,20.37,9.138,20.37,20.37S35.232,43.837,24,43.837S3.63,34.699,3.63,23.468
					c0-1.606,0.187-3.205,0.557-4.753c0.073-0.304-0.115-0.609-0.418-0.681c-0.304-0.072-0.609,0.115-0.681,0.418
					C2.698,20.085,2.5,21.773,2.5,23.468C2.5,35.323,12.145,44.968,24,44.968z"/>
			</g>
			<polygon style="fill:#FFFFFF;" points="16.211,17.371 14.431,13.774 12.837,15.197 			"/>
			<polygon style="fill:#FFFFFF;" points="15.717,11.58 14.339,7.811 12.6,9.053 			"/>
			<polygon style="fill:#FFFFFF;" points="15.777,4.417 14.399,0.648 12.66,1.89 			"/>
			<polygon style="fill:#FFFFFF;" points="8.315,15.708 5.726,12.642 4.519,14.405 			"/>
			<polygon style="fill:#FFFFFF;" points="9.752,10.944 7.163,7.878 5.956,9.641 			"/>
			<g>
				<path style="fill:#FFFFFF;" d="M17.155,29.239c0.019,0.764,0.305,1.423,0.74,2.032c1.202,1.684,2.024,3.543,2.298,5.591
					c0.11,0.82,0.152,3.251,0.171,5.221c1.109,0.205,2.252,0.313,3.419,0.313c0.785,0,1.558-0.049,2.316-0.142
					c0.072-2.473,0.456-7.264,1.272-8.895c0.433-0.868,0.978-1.68,1.483-2.511c0.884-1.451,0.501-3.302-0.909-4.354
					c-1.271-0.948-3.185-0.757-4.277,0.43c-0.151,0.163-0.285,0.341-0.439,0.526c-0.077-0.103-0.135-0.182-0.194-0.261
					c-0.868-1.162-2.351-1.583-3.795-1.077C18.01,26.541,17.123,27.883,17.155,29.239z"/>
				<path style="fill:#FFFFFF;" d="M22.658,14.676c0.211-1.558,1.261-2.652,2.742-2.904c1.034-0.175,2.08-0.32,3.089-0.595
					c1.285-0.349,3.741-1.777,5.641-3.056c1.695,1.127,3.196,2.524,4.439,4.131c-1.506,1.592-5.089,5.182-5.632,7.184
					c-0.159,0.591-0.3,1.186-0.664,1.701c-0.894,1.259-2.576,1.744-3.969,1.129c-1.459-0.645-2.247-2.186-1.906-3.719
					c0.022-0.095,0.042-0.189,0.069-0.316c-0.674,0.092-1.305,0.026-1.908-0.25C23.278,17.392,22.477,16.005,22.658,14.676z
					 M23.686,15.364c0.03,0.473,0.384,0.832,0.835,0.848c0.433,0.014,0.816-0.354,0.858-0.826c0.072-0.813,0.141-0.896,0.948-1.136
					c0.432-0.128,0.716-0.571,0.631-0.981c-0.092-0.443-0.516-0.739-0.977-0.678C24.599,12.769,23.598,13.98,23.686,15.364z"/>
				<path style="fill:#FFFFFF;" d="M25.991,24.096c-0.638,0.169-1.273,0.315-1.891,0.51c-0.307,0.097-0.583,0.397-0.876,0.4
					c-0.279,0.003-0.552-0.283-0.843-0.403c-1.585-0.651-3.117-0.539-4.587,0.349c-0.072,0.043-0.149,0.077-0.225,0.117
					c-1.214-2.944,0.274-6.88,3.545-8.046c0.064,0.169,0.124,0.341,0.194,0.508c0.513,1.224,1.364,2.125,2.581,2.665
					c0.223,0.099,0.33,0.216,0.351,0.474c0.105,1.349,0.677,2.472,1.698,3.364C25.969,24.062,25.993,24.098,25.991,24.096z"/>
			</g>
		</g>
	</g>
</g>
</svg>
