<?xml version="1.0" encoding="iso-8859-1"?>
<!-- Generator: Adobe Illustrator 30.1.0, SVG Export Plug-In . SVG Version: 9.03 Build 0)  -->
<svg version="1.1" id="&#x5716;&#x5C64;_1" xmlns="http://www.w3.org/2000/svg" xmlns:xlink="http://www.w3.org/1999/xlink" x="0px"
	 y="0px" viewBox="0 0 60.937 71.243" style="enable-background:new 0 0 60.937 71.243;" xml:space="preserve">
<g>
	<g>
		<g>
			<circle style="fill:#385D6C;" cx="30.044" cy="2.548" r="2.548"/>
			<path style="fill-rule:evenodd;clip-rule:evenodd;fill:#385D6C;" d="M41.74,28.881v9.04v1.639c0,0-0.5,3.278-2.782,3.278
				c-2.282,0-2.287-3.278-2.287-3.278v-6.529c0,0,0.032-2.511,2.287-2.511c0,0,1.639-0.002,1.639-2.458
				c0-2.456-2.782-2.456-2.782-2.456c-6.708,0-6.664,7.426-6.664,7.426v8.168c0,0,0,1.639-1.107,1.639s-1.107-1.639-1.107-1.639
				v-8.168c0,0,0.044-7.426-6.664-7.426c0,0-2.782,0-2.782,2.456c0,2.456,1.639,2.458,1.639,2.458c2.255,0,2.287,2.511,2.287,2.511
				v6.529c0,0-0.005,3.278-2.287,3.278c-2.282,0-2.782-3.278-2.782-3.278v-1.639v-9.04c0-3.286-2.782-3.275-2.782-3.275V39.56
				c0,0,0,4.916,4.745,4.916c4.745,0,4.74-4.916,4.74-4.916v-6.529c0,0,0.005-4.15-3.921-4.15c0,0-0.819,0-0.819-0.819
				c0-0.819,1.963-0.819,1.963-0.819c5.069,0,5.045,5.789,5.045,5.789v8.168c0,0-0.011,3.278,2.726,3.278l0,0l0,0l0,0l0,0
				c2.737,0,2.726-3.278,2.726-3.278v-8.168c0,0-0.025-5.789,5.045-5.789c0,0,1.963,0,1.963,0.819c0,0.819-0.819,0.819-0.819,0.819
				c-3.926,0-3.921,4.15-3.921,4.15v6.529c0,0-0.005,4.916,4.74,4.916s4.745-4.916,4.745-4.916V25.605
				C44.522,25.605,41.74,25.595,41.74,28.881z"/>
			<path style="fill-rule:evenodd;clip-rule:evenodd;fill:#385D6C;" d="M41.74,8.371v9.04v1.639c0,0-0.5,3.278-2.782,3.278
				c-2.282,0-2.287-3.278-2.287-3.278v-6.529c0,0,0.032-2.511,2.287-2.511c0,0,1.639-0.002,1.639-2.458
				c0-2.456-2.782-2.456-2.782-2.456c-6.708,0-6.664,7.426-6.664,7.426v8.168c0,0,0,1.639-1.107,1.639s-1.107-1.639-1.107-1.639
				v-8.168c0,0,0.044-7.426-6.664-7.426c0,0-2.782,0-2.782,2.456c0,2.456,1.639,2.458,1.639,2.458c2.255,0,2.287,2.511,2.287,2.511
				v6.529c0,0-0.005,3.278-2.287,3.278c-2.282,0-2.782-3.278-2.782-3.278v-1.639v-9.04c0-3.286-2.782-3.275-2.782-3.275V19.05
				c0,0,0,4.916,4.745,4.916c4.745,0,4.74-4.916,4.74-4.916v-6.529c0,0,0.005-4.15-3.921-4.15c0,0-0.819,0-0.819-0.819
				c0-0.819,1.963-0.819,1.963-0.819c5.069,0,5.045,5.789,5.045,5.789v8.168c0,0-0.011,3.278,2.726,3.278l0,0l0,0l0,0l0,0
				c2.737,0,2.726-3.278,2.726-3.278v-8.168c0,0-0.025-5.789,5.045-5.789c0,0,1.963,0,1.963,0.819c0,0.819-0.819,0.819-0.819,0.819
				c-3.926,0-3.921,4.15-3.921,4.15v6.529c0,0-0.005,4.916,4.74,4.916s4.745-4.916,4.745-4.916V5.096
				C44.522,5.096,41.74,5.086,41.74,8.371z"/>
		</g>
		<g>
			<path style="fill:#385D6C;" d="M31.283,50.83h3.131v0.476c-0.481,0.02-0.835,0.14-1.061,0.361
				c-0.226,0.221-0.421,0.654-0.584,1.298l-4.54,16.926h-1.121l-2.435-8.658h-0.058l-2.824,8.658h-1.034l-5.36-18.585h-1.054V50.83
				h15.108v0.476h-0.594c-0.647,0-1.082,0.346-1.303,1.039l-0.906,2.871l2.507,9.004h0.058l3.115-11.614
				c0.058-0.231,0.087-0.438,0.087-0.621c0-0.453-0.169-0.679-0.508-0.679h-0.594L31.283,50.83z M19.092,51.306l3.786,13.506h0.072
				l1.477-4.401l-2.531-9.105H19.092z M25.491,51.306l0.847,3.044h0.058l0.596-1.976c0.038-0.154,0.058-0.293,0.058-0.418
				c0-0.433-0.226-0.65-0.679-0.65H25.491z"/>
			<path style="fill:#385D6C;" d="M50.562,69.126V50.83h-4.704v0.505h1.267h0.032h0.943c0,0-0.79,0.247-0.943,1.083v16.708h-1.27
				v0.505h5.916v-0.505H50.562z"/>
			<path style="fill:#385D6C;" d="M58.274,69.126V50.83H53.57v0.505h1.299v0.003h0.943c0,0-0.792,0.247-0.943,1.086v16.702h-1.27
				v0.505h5.916v-0.505H58.274z"/>
			<g>
				<path style="fill:#385D6C;" d="M3.364,54.769c0.531,0,0.987-0.188,1.368-0.563c0.381-0.375,0.572-0.827,0.572-1.356
					c0-0.529-0.191-0.981-0.572-1.356c-0.382-0.375-0.838-0.563-1.368-0.563c-0.531,0-0.985,0.188-1.362,0.563
					c-0.376,0.375-0.565,0.827-0.565,1.356c0,0.529,0.188,0.981,0.565,1.356C2.379,54.581,2.833,54.769,3.364,54.769z"/>
				<path style="fill:#385D6C;" d="M5.305,69.126V56.89H0.601v0.505h1.27v0.001h0.94c0,0-0.778,0.241-0.94,1.06v10.67H0.572v0.505
					h5.873v-0.505H5.305z"/>
			</g>
			<path style="fill:#385D6C;" d="M44.213,63.585c0.003-0.174,0-0.338-0.002-0.505h-3.778h-1.167h-1.142v-4.458
				c0-0.452,0.11-0.81,0.332-1.075c0.221-0.264,0.524-0.396,0.909-0.396c0.26,0,0.503,0.13,0.729,0.39
				c0.226,0.26,0.339,0.544,0.339,0.851v3.932h3.751c-0.214-3.759-1.787-5.649-4.732-5.649c-1.463,0-2.684,0.618-3.665,1.854
				c-0.981,1.236-1.472,2.797-1.472,4.683c0,2.03,0.486,3.643,1.457,4.841c0.972,1.198,2.275,1.796,3.91,1.796
				c2.617,0,4.055-1.486,4.314-4.459h-0.462c-0.375,2.636-1.539,3.954-3.492,3.954c-1.279,0-1.919-0.917-1.919-2.75v-3.008H44.213z"
				/>
		</g>
	</g>
</g>
</svg>
