<?xml version="1.0" encoding="iso-8859-1"?>
<!-- Generator: Adobe Illustrator 30.1.0, SVG Export Plug-In . SVG Version: 9.03 Build 0)  -->
<svg version="1.1" id="&#x5716;&#x5C64;_1" xmlns="http://www.w3.org/2000/svg" xmlns:xlink="http://www.w3.org/1999/xlink" x="0px"
	 y="0px" viewBox="0 0 115.507 115.507" style="enable-background:new 0 0 115.507 115.507;" xml:space="preserve">
<g>
	<linearGradient id="SVGID_1_" gradientUnits="userSpaceOnUse" x1="57.7534" y1="17.8744" x2="57.7534" y2="102.4627">
		<stop  offset="0" style="stop-color:#C69C6D"/>
		<stop  offset="1" style="stop-color:#754C24"/>
	</linearGradient>
	<path style="fill:url(#SVGID_1_);" d="M91.976,115.507H23.531C10.589,115.507,0,104.918,0,91.976V23.531
		C0,10.589,10.589,0,23.531,0h68.445c12.942,0,23.531,10.589,23.531,23.531v68.445C115.507,104.918,104.918,115.507,91.976,115.507z
		"/>
	<g>
		<path style="fill:#FFFFFF;" d="M60.554,9.758c0,1.547-1.254,2.8-2.801,2.8c-1.547,0-2.8-1.254-2.8-2.8s1.254-2.8,2.8-2.8
			C59.3,6.957,60.554,8.211,60.554,9.758z"/>
		<path style="fill-rule:evenodd;clip-rule:evenodd;fill:#FFFFFF;" d="M70.609,38.701v9.937v1.801c0,0-0.55,3.602-3.058,3.602
			s-2.514-3.602-2.514-3.602v-7.176c0,0,0.035-2.76,2.514-2.76c0,0,1.801-0.002,1.801-2.702c0-2.7-3.058-2.7-3.058-2.7
			c-7.373,0-7.325,8.162-7.325,8.162v8.978c0,0,0,1.801-1.216,1.801c-1.216,0-1.216-1.801-1.216-1.801v-8.978
			c0,0,0.049-8.162-7.325-8.162c0,0-3.058,0-3.058,2.7c0,2.7,1.801,2.702,1.801,2.702c2.478,0,2.514,2.76,2.514,2.76v7.176
			c0,0-0.006,3.602-2.514,3.602c-2.508,0-3.058-3.602-3.058-3.602v-1.801v-9.937c0-3.611-3.058-3.6-3.058-3.6v15.338
			c0,0,0,5.404,5.216,5.404c5.216,0,5.21-5.404,5.21-5.404v-7.176c0,0,0.005-4.561-4.31-4.561c0,0-0.901,0-0.901-0.901
			c0-0.901,2.157-0.901,2.157-0.901c5.572,0,5.545,6.363,5.545,6.363v8.978c0,0-0.012,3.602,2.996,3.602l0,0l0,0l0,0l0,0
			c3.009,0,2.996-3.602,2.996-3.602v-8.978c0,0-0.027-6.363,5.545-6.363c0,0,2.157,0,2.157,0.901c0,0.901-0.901,0.901-0.901,0.901
			c-4.315,0-4.31,4.561-4.31,4.561v7.176c0,0-0.006,5.404,5.21,5.404s5.216-5.404,5.216-5.404V35.101
			C73.668,35.101,70.609,35.09,70.609,38.701z"/>
		<path style="fill-rule:evenodd;clip-rule:evenodd;fill:#FFFFFF;" d="M70.609,16.159v9.936v1.801c0,0-0.55,3.602-3.058,3.602
			s-2.514-3.602-2.514-3.602V20.72c0,0,0.035-2.76,2.514-2.76c0,0,1.801-0.002,1.801-2.702s-3.058-2.7-3.058-2.7
			c-7.373,0-7.325,8.162-7.325,8.162v8.978c0,0,0,1.801-1.216,1.801c-1.216,0-1.216-1.801-1.216-1.801V20.72
			c0,0,0.049-8.162-7.325-8.162c0,0-3.058,0-3.058,2.7s1.801,2.702,1.801,2.702c2.478,0,2.514,2.76,2.514,2.76v7.176
			c0,0-0.006,3.602-2.514,3.602c-2.508,0-3.058-3.602-3.058-3.602v-1.801v-9.936c0-3.611-3.058-3.6-3.058-3.6v15.338
			c0,0,0,5.404,5.216,5.404c5.216,0,5.21-5.404,5.21-5.404V20.72c0,0,0.005-4.561-4.31-4.561c0,0-0.901,0-0.901-0.901
			c0-0.901,2.157-0.901,2.157-0.901c5.572,0,5.545,6.363,5.545,6.363v8.978c0,0-0.012,3.602,2.996,3.602l0,0l0,0l0,0l0,0
			c3.009,0,2.996-3.602,2.996-3.602V20.72c0,0-0.027-6.363,5.545-6.363c0,0,2.157,0,2.157,0.901c0,0.901-0.901,0.901-0.901,0.901
			c-4.315,0-4.31,4.561-4.31,4.561v7.176c0,0-0.006,5.404,5.21,5.404s5.216-5.404,5.216-5.404V12.558
			C73.668,12.558,70.609,12.547,70.609,16.159z"/>
	</g>
	<g>
		<path style="fill:#FFFFFF;" d="M39.204,72.766c-1.22,3.635-2.971,6.447-5.253,8.674c2.494,1.486,5.597,2.494,9.444,3.025
			c-0.716,0.742-1.618,2.202-2.042,3.103c-4.244-0.716-7.561-1.99-10.214-3.9c-2.812,1.884-6.261,3.157-10.346,4.033
			c-0.345-0.822-1.274-2.361-1.857-3.157c3.847-0.636,7.03-1.618,9.603-3.157c-2.096-2.229-3.661-5.067-4.855-8.542l3.024-0.77
			c0.982,2.971,2.467,5.412,4.537,7.349c2.042-1.884,3.528-4.351,4.457-7.481L39.204,72.766z M25.091,68.521h-5.545v-3.05h5.545
			v-2.6h3.131v2.6h2.467v3.05h-2.467v2.971h-3.131V68.521z M34.376,68.495h-2.52v-3.051h2.52v-2.573h3.157v2.573h5.465v3.051h-5.465
			v2.997h-3.157V68.495z"/>
		<path style="fill:#FFFFFF;" d="M60.378,81.07c3.184,1.114,7.375,2.732,9.577,3.9l-1.486,2.706
			c-2.334-1.326-7.189-3.369-10.611-4.616l1.194-1.99h-0.955c-1.274,3.262-4.112,5.358-11.196,6.526
			c-0.212-0.849-0.955-2.175-1.565-2.838c5.332-0.717,7.825-1.911,9.073-3.687h-7.906v-2.68h8.94c0.08-0.424,0.159-0.902,0.212-1.38
			h-9.763v-2.732H56.08v-1.406h-7.853v-2.654h7.853v-1.352h-9.364v-2.785h5.041c-0.398-0.796-0.956-1.645-1.486-2.335l2.812-1.114
			c0.822,0.929,1.644,2.202,1.99,3.104l-0.77,0.345h5.836c0.663-1.035,1.459-2.415,1.883-3.449l3.396,0.875
			c-0.584,0.929-1.193,1.804-1.777,2.574h5.093v2.785h-9.391v1.352h8.118v2.654h-8.118v1.406h10.558v2.732H58.998
			c-0.053,0.478-0.132,0.929-0.212,1.38h10.346v2.68H60.378z"/>
		<path style="fill:#FFFFFF;" d="M94.577,71.572v13.052c0,1.38-0.292,2.069-1.167,2.494c-0.929,0.45-2.255,0.504-4.059,0.504
			c-0.133-0.77-0.558-1.857-0.902-2.573c1.087,0.053,2.308,0.053,2.626,0.026c0.371,0,0.504-0.106,0.504-0.477V72.315h-5.889v11.54
			c0.663-0.61,1.274-1.326,1.804-2.122c-0.531-0.319-1.061-0.637-1.565-0.876l1.087-1.486c0.451,0.213,0.929,0.478,1.406,0.743
			c0.239-0.477,0.451-0.981,0.637-1.485l1.883,0.424c-0.265,0.689-0.557,1.379-0.902,2.069c0.558,0.371,1.061,0.716,1.433,1.035
			l-1.114,1.644c-0.345-0.318-0.796-0.663-1.3-1.008c-0.584,0.875-1.247,1.698-1.91,2.335c-0.319-0.293-1.009-0.796-1.46-1.088
			v3.343h-2.971V72.315h-5.651v11.752c0.636-0.61,1.221-1.353,1.725-2.176c-0.504-0.371-1.009-0.689-1.486-0.981l1.087-1.433
			c0.424,0.239,0.875,0.504,1.3,0.796c0.266-0.531,0.478-1.087,0.664-1.644l1.883,0.45c-0.265,0.77-0.584,1.565-0.955,2.308
			c0.531,0.398,1.008,0.796,1.353,1.114l-1.141,1.592c-0.319-0.319-0.716-0.663-1.167-1.035c-0.558,0.875-1.167,1.644-1.804,2.281
			c-0.345-0.292-1.008-0.796-1.459-1.061v3.343H74.15V72.103l-0.054,0.027c-0.557-0.558-1.644-1.565-2.334-2.043
			c1.857-0.689,3.74-1.751,5.093-2.918h-4.245V64.33h23.425v2.839h-3.608c1.645,0.849,3.289,1.804,4.351,2.573L94.577,71.572z
			 M81.366,77.701c-0.292-0.292-0.69-0.636-1.114-0.982c-0.504,0.77-1.035,1.433-1.592,1.99c-0.318-0.265-1.061-0.822-1.539-1.087
			c0.584-0.557,1.141-1.22,1.618-1.963c-0.45-0.292-0.955-0.584-1.406-0.822l1.088-1.406c0.397,0.212,0.822,0.424,1.247,0.69
			c0.265-0.505,0.477-0.982,0.663-1.486l1.804,0.424c-0.265,0.69-0.584,1.379-0.928,2.042c0.504,0.371,0.955,0.717,1.3,1.009
			L81.366,77.701z M82.719,69.769v-2.6h-3.422l1.061,0.371c-0.69,0.769-1.539,1.539-2.467,2.229H82.719z M91.605,69.769
			c-1.22-0.717-2.52-1.406-3.687-1.937l0.875-0.663h-3.104v2.6H91.605z M90.094,77.78c-0.319-0.319-0.717-0.69-1.194-1.061
			c-0.504,0.77-1.061,1.46-1.592,2.016c-0.345-0.265-1.114-0.796-1.565-1.061c0.61-0.558,1.167-1.248,1.671-2.016
			c-0.504-0.345-1.035-0.663-1.539-0.929l1.087-1.352c0.424,0.212,0.902,0.451,1.353,0.743c0.238-0.478,0.451-0.982,0.636-1.46
			l1.83,0.425c-0.265,0.689-0.557,1.379-0.928,2.042c0.557,0.371,1.035,0.77,1.379,1.087L90.094,77.78z"/>
	</g>
	<g>
		<path style="fill:#FFFFFF;" d="M22.803,94.571c-0.247,0.856-0.558,1.726-0.895,2.543v9.034h-0.857v-7.282
			c-0.312,0.546-0.623,1.038-0.961,1.48c-0.065-0.234-0.325-0.753-0.48-0.986c0.986-1.233,1.817-3.115,2.324-5.01L22.803,94.571z
			 M25.568,99.14c-0.169,1.843-0.493,3.309-0.986,4.452c1.207,1.297,2.855,1.557,4.62,1.571c0.403,0,1.856,0,2.376-0.013
			c-0.13,0.208-0.286,0.597-0.325,0.844h-2.077c-1.947,0-3.673-0.298-4.959-1.61c-0.415,0.753-0.934,1.337-1.505,1.778
			c-0.143-0.182-0.467-0.493-0.649-0.61c0.636-0.455,1.155-1.064,1.571-1.882c-0.429-0.636-0.818-1.44-1.103-2.453l0.7-0.247
			c0.195,0.74,0.467,1.35,0.766,1.856c0.325-0.831,0.532-1.83,0.675-3.012h-1.428c-0.182,0.104-0.364,0.208-0.364,0.312
			c-0.077-0.169-0.259-0.546-0.389-0.714c0.221-0.052,0.532-0.389,0.779-0.792c0.208-0.325,0.791-1.376,1.246-2.518H22.83v-0.843
			h2.012l0.272-0.13l0.584,0.377c-0.532,1.285-1.142,2.544-1.752,3.53h0.948l0.169-0.013L25.568,99.14z M27.697,96.115h-1.623
			v-0.714h1.623v-1.026h0.831v1.026h2.115v1.713h0.921v0.753h-0.921v1.778h-2.115v0.973h2.323v0.766h-2.323v1h2.738v0.792h-2.738
			v1.571h-0.831v-1.571h-2.168v-0.792h2.168v-1h-1.83v-0.766h1.83v-0.973h-1.623v-0.727h1.623v-1.051h-2.22v-0.753h2.22V96.115z
			 M28.527,96.115v0.999h1.349v-0.999H28.527z M29.877,97.868h-1.349v1.051h1.349V97.868z"/>
		<path style="fill:#FFFFFF;" d="M39.815,102.903c0.298,0.117,0.597,0.221,0.921,0.351c0.701-0.428,1.623-1.116,2.155-1.609
			l0.726,0.558c-0.636,0.493-1.402,1-2.064,1.402c1.039,0.429,2.051,0.895,2.687,1.259l-0.428,0.714
			c-0.896-0.532-2.558-1.312-3.998-1.895v1.376c0,0.61-0.156,0.831-0.558,0.974c-0.428,0.143-1.117,0.143-2.194,0.143
			c-0.052-0.247-0.182-0.584-0.311-0.831c0.791,0.039,1.583,0.026,1.791,0.013c0.234-0.013,0.312-0.077,0.312-0.298v-1.363
			c-1.376,0.61-2.791,1.22-3.894,1.687l-0.389-0.792c1.064-0.376,2.7-1.025,4.284-1.661v-1.454h-3.427v-0.7h3.427v-1.052h-3.933
			v-0.726h3.933v-1h-3.31v-0.701h3.31V96.31h-4.245v2.959c0,2.012-0.168,4.945-1.259,6.905c-0.169-0.169-0.571-0.429-0.779-0.52
			c1.012-1.869,1.116-4.504,1.116-6.386v-3.816h5.088c-0.169-0.325-0.377-0.7-0.571-0.986l0.921-0.272
			c0.272,0.389,0.571,0.883,0.765,1.259h4.478v0.857h-4.555v0.986h3.426v1.636h1.272v0.843h-1.272v1.7h-3.426V102.903z
			 M35.804,101.566c0.636,0.377,1.48,0.948,1.908,1.324l-0.558,0.597c-0.402-0.389-1.233-0.986-1.895-1.389L35.804,101.566z
			 M39.815,98.997h2.505v-1h-2.505V98.997z M39.815,100.775h2.505v-1.052h-2.505V100.775z"/>
		<path style="fill:#FFFFFF;" d="M57.358,99.97v0.856h-5.413c-0.039,0.351-0.091,0.689-0.156,1h5.361v0.844h-5.594
			c-0.61,1.778-1.999,2.881-5.399,3.465c-0.077-0.246-0.325-0.649-0.506-0.869c2.998-0.428,4.27-1.259,4.855-2.595h-4.361v-0.844
			h4.633c0.078-0.311,0.13-0.649,0.169-1h-5.088V99.97h5.205v-1.09h-4.037v-0.844h4.037v-1.051h-4.75v-0.869h2.738
			c-0.208-0.455-0.61-1.052-1-1.506l0.831-0.338c0.48,0.493,0.935,1.169,1.143,1.636l-0.467,0.208h3.414
			c0.389-0.532,0.843-1.298,1.117-1.844l0.986,0.299c-0.312,0.531-0.701,1.09-1.038,1.544H56.8v0.869h-4.776v1.051h4.153v0.844
			h-4.153v1.09H57.358z M52.049,102.812c1.778,0.675,4.115,1.792,5.295,2.57l-0.454,0.831c-1.142-0.805-3.466-1.973-5.256-2.687
			L52.049,102.812z"/>
		<path style="fill:#FFFFFF;" d="M70.318,103.643h-5.192v1.493c0,0.506-0.103,0.726-0.506,0.869c-0.415,0.143-1.064,0.13-2.089,0.13
			c-0.052-0.246-0.208-0.571-0.337-0.817c0.805,0.026,1.531,0.026,1.726,0.026c0.22-0.013,0.272-0.052,0.272-0.234v-1.467H58.78
			v-0.817h5.412v-0.558c0.688-0.246,1.44-0.61,2.064-0.986h-5.076v-0.727h6.101l0.195-0.052l0.584,0.481
			c-0.805,0.61-1.908,1.194-2.933,1.609v0.234h5.192V103.643z M59.987,101.281h-0.921v-2.349h1.038l-0.26-3.855
			c0.753-0.13,1.869-0.441,2.505-0.636l0.428,0.597c-0.558,0.208-1.323,0.377-1.999,0.506l0.052,0.636h1.882v0.662H60.87
			l0.052,0.701h1.843v0.662H60.96l0.052,0.727h7.112c0.026-0.234,0.052-0.467,0.078-0.727h-1.882v-0.662h1.934l0.065-0.701h-1.921
			V96.18h1.96l0.039-0.701h-2.064v-0.662h2.998c-0.065,1.285-0.182,2.959-0.285,4.115h1.012v2.349h-0.948v-1.61h-9.125V101.281z
			 M65.542,98.828c-0.22-0.234-0.558-0.48-0.934-0.753c-0.428,0.337-0.869,0.61-1.298,0.843c-0.091-0.13-0.363-0.377-0.532-0.506
			c0.429-0.194,0.844-0.441,1.233-0.714c-0.312-0.195-0.636-0.363-0.935-0.506l0.48-0.429c0.325,0.143,0.662,0.338,1,0.52
			c0.234-0.208,0.467-0.441,0.649-0.688l0.675,0.22c-0.221,0.286-0.467,0.558-0.753,0.831c0.364,0.234,0.701,0.48,0.935,0.714
			L65.542,98.828z M65.516,96.517c-0.208-0.194-0.546-0.441-0.896-0.662c-0.402,0.298-0.805,0.571-1.207,0.779
			c-0.104-0.117-0.377-0.351-0.546-0.467c0.403-0.182,0.792-0.415,1.155-0.662c-0.298-0.182-0.623-0.337-0.908-0.467l0.467-0.428
			c0.312,0.13,0.636,0.298,0.974,0.48c0.234-0.208,0.441-0.428,0.61-0.636l0.675,0.182c-0.208,0.272-0.441,0.532-0.715,0.791
			c0.351,0.221,0.662,0.429,0.896,0.61L65.516,96.517z"/>
		<path style="fill:#FFFFFF;" d="M76.167,97.309h-4.543v-0.792h4.543V97.309z M75.752,98.983h-3.608v-0.765h3.608V98.983z
			 M72.144,99.905h3.608v0.766h-3.608V99.905z M75.843,105.382h-2.92v0.61h-0.779v-4.361h3.699V105.382z M72.923,102.436v2.141
			h2.103v-2.141H72.923z M73.961,96.374c-0.195-0.467-0.61-1.194-0.935-1.726l0.701-0.377c0.363,0.532,0.779,1.207,0.96,1.661
			L73.961,96.374z M80.411,94.571c-0.077,0.156-0.156,0.337-0.234,0.506c0.818,1.233,2.22,2.492,3.427,3.141
			c-0.221,0.182-0.493,0.531-0.636,0.779c-1.09-0.675-2.349-1.882-3.219-3.141c-0.792,1.272-1.869,2.388-3.154,3.206
			c-0.117-0.195-0.415-0.52-0.597-0.675c1.609-0.986,2.933-2.505,3.582-4.089L80.411,94.571z M82.761,101.982
			c-1.064,2.064-3.116,3.44-5.724,4.193c-0.104-0.247-0.312-0.584-0.506-0.805c2.492-0.598,4.477-1.869,5.451-3.738L82.761,101.982z
			 M80.516,98.166c-0.753,1.116-1.947,2.154-3.076,2.803c-0.13-0.208-0.363-0.467-0.571-0.636c1.064-0.546,2.246-1.532,2.894-2.479
			L80.516,98.166z M81.657,100.022c-0.882,1.402-2.375,2.622-3.894,3.349c-0.13-0.194-0.351-0.493-0.558-0.675
			c1.441-0.636,2.907-1.752,3.699-2.998L81.657,100.022z"/>
		<path style="fill:#FFFFFF;" d="M86.248,101.372c-0.078,1.609-0.325,3.492-1.052,4.815c-0.168-0.169-0.558-0.506-0.779-0.61
			c0.831-1.571,0.895-3.804,0.895-5.478v-4.517c1.532-0.182,3.401-0.52,4.413-0.987l0.623,0.792
			c-1.051,0.454-2.648,0.753-4.089,0.921v1.246h3.478v3.816H86.248z M86.26,98.425v1.675v0.389h2.544v-2.064H86.26z M96.371,99.606
			h-1.506v6.529h-0.948v-6.529h-2.012v0.312c0,1.934-0.246,4.595-1.894,6.269c-0.156-0.182-0.546-0.519-0.753-0.649
			c1.532-1.571,1.687-3.842,1.687-5.62v-4.309c1.597-0.234,3.478-0.649,4.53-1.129l0.662,0.805
			c-1.117,0.467-2.752,0.817-4.232,1.051v2.349h4.465V99.606z"/>
	</g>
</g>
</svg>
